:SAMPLES-PER-SECOND 30
:FULLY-SPECIFIED
:DEGREES
57
root  -22.9494 38.4393 -15.573 168.536 -64.9429 -170.891
RightUpLeg  14.1263 -14.3571 -3.28432
RightLeg  19.0841 -1.20655 1.00165
RightFoot  -23.4696 0.364225 4.9397
RightToes  0.00048216 0.542163 -0.142577
Spine  16.3559 0.0984031 12.6582
Spine1  9.25316 2.92461 -4.40239
HEad  10.4895 3.09462 -5.31785
LeftShoulder1  6.77414 -11.3597 -39.359
LeftArm  -5.79342 17.7075 -23.3852
LeftForeArm  28.9247 -5.12228 -6.5447
LeftHand  -0.25398 0.0180481 5.50724
RightShoulder  4.35164 8.90775 29.0807
RightArm  -5.00659 17.9348 28.8613
RightForeArm  -3.31785 25.1872 5.56456
RightHand  -1.136 3.04919 -15.8257
LeftUpLeg  -22.6838 6.63986 6.94974
LeftLeg  -8.21607 30.6479 -9.18531
LeftFoot  -4.96071 0.462479 -7.60523
LeftToes  1.06243e-005 4.65856e-005 -8.18505e-006
58
root  -24.4921 37.9711 -16.2339 167.627 -65.6045 -170.261
RightUpLeg  16.8746 -15.7832 -4.3518
RightLeg  20.7496 0.177079 0.56607
RightFoot  -24.6733 0.544995 6.06037
RightToes  0.00048216 0.542163 -0.142577
Spine  17.1132 0.0154656 11.3812
Spine1  9.80167 2.92848 -4.42288
HEad  9.59684 2.72469 -4.59977
LeftShoulder1  6.68361 -11.3782 -38.7256
LeftArm  -6.10624 17.8476 -22.5085
LeftForeArm  28.1375 -4.2907 -6.33266
LeftHand  -0.25398 0.0180481 5.50724
RightShoulder  4.52375 9.24064 29.5239
RightArm  -4.43028 17.925 29.6544
RightForeArm  -2.91562 26.8563 5.9329
RightHand  -1.04324 2.4835 -15.5574
LeftUpLeg  -23.5477 7.17566 6.70715
LeftLeg  -6.17338 31.5154 -9.03025
LeftFoot  -3.83575 0.395461 -5.84429
LeftToes  1.06243e-005 4.65856e-005 -8.18505e-006
59
root  -26.0451 37.5176 -16.9082 169.237 -66.5256 -171.966
RightUpLeg  18.4716 -15.9034 -6.00163
RightLeg  23.6942 0.989095 0.178899
RightFoot  -25.5211 1.02841 9.62301
RightToes  0.00048216 0.542163 -0.142577
Spine  18.1152 0.396418 8.4289
Spine1  10.2271 2.91008 -3.74634
HEad  8.71387 2.1262 -3.96366
LeftShoulder1  6.70855 -11.5151 -38.4931
LeftArm  -6.41813 17.4116 -21.5615
LeftForeArm  27.2117 -4.357 -6.22158
LeftHand  -0.25398 0.0180481 5.50724
RightShoulder  4.7374 9.55859 30.3078
RightArm  -3.71047 17.3146 29.8863
RightForeArm  -2.15398 28.6571 6.3239
RightHand  -0.925466 1.68513 -15.319
LeftUpLeg  -25.8976 9.31004 4.67261
LeftLeg  0.497443 29.34 -6.76478
LeftFoot  2.3479 -0.0218131 -0.222562
LeftToes  1.06243e-005 4.65856e-005 -8.18505e-006
60
root  -27.5827 37.0867 -17.5627 172.88 -67.4809 -175.708
RightUpLeg  17.7809 -14.5021 -7.98025
RightLeg  30.1084 0.659341 0.171567
RightFoot  -23.5196 1.42507 15.0705
RightToes  0.00048216 0.542163 -0.142577
Spine  19.6668 1.27954 4.7472
Spine1  9.93474 2.86769 -2.57066
HEad  7.64662 1.02085 -3.13096
LeftShoulder1  6.9384 -11.9224 -38.7895
LeftArm  -7.13617 16.1173 -20.5532
LeftForeArm  26.7087 -5.17646 -6.02359
LeftHand  -0.25398 0.0180481 5.50724
RightShoulder  4.98277 9.91759 31.1767
RightArm  -3.35427 16.1124 29.9063
RightForeArm  -0.77225 29.9818 6.57567
RightHand  -0.847833 1.13736 -15.1762
LeftUpLeg  -30.8544 17.88 -2.55668
LeftLeg  10.2093 17.6003 -1.62178
LeftFoot  10.3147 -1.32195 6.58958
LeftToes  1.06243e-005 4.65856e-005 -8.18505e-006
61
root  -28.9993 36.8468 -18.0971 177.123 -68.7927 179.949
RightUpLeg  13.7049 -14.2008 -10.2694
RightLeg  41.1081 -0.15973 -0.496814
RightFoot  -15.0178 0.500486 17.338
RightToes  0.00048216 0.542163 -0.142577
Spine  22.4251 1.77105 2.14385
Spine1  9.13295 2.74392 -2.1602
HEad  5.95981 -0.49104 -2.33917
LeftShoulder1  7.36587 -12.6981 -39.254
LeftArm  -8.56899 13.7251 -19.8691
LeftForeArm  26.215 -6.61888 -5.68168
LeftHand  -0.25398 0.0180481 5.50724
RightShoulder  5.16696 10.2663 31.578
RightArm  -3.27308 15.2848 30.4631
RightForeArm  0.334731 29.5674 6.41416
RightHand  -0.81302 1.00564 -14.852
LeftUpLeg  -35.7191 25.9058 -11.4112
LeftLeg  16.7391 4.60585 1.93532
LeftFoot  14.5186 -2.73058 11.5695
LeftToes  1.06243e-005 4.65856e-005 -8.18505e-006
62
root  -30.1294 36.7774 -18.4465 -178.616 -70.0164 175.775
RightUpLeg  5.96007 -14.0093 -11.8444
RightLeg  54.405 -1.21133 -2.22728
RightFoot  -1.94733 -1.11196 13.702
RightToes  0.00048216 0.542163 -0.142577
Spine  26.5185 1.58804 1.21126
Spine1  8.5923 2.68739 -3.24592
HEad  3.42523 -1.95036 -2.29036
LeftShoulder1  7.8586 -13.7317 -39.3832
LeftArm  -10.2495 10.1071 -20.0137
LeftForeArm  24.5673 -8.54505 -5.43633
LeftHand  -0.25398 0.0180481 5.50724
RightShoulder  5.20258 10.4949 31.2147
RightArm  -2.73062 16.3133 31.6265
RightForeArm  0.239511 26.6802 5.68877
RightHand  -0.727501 0.801878 -13.7047
LeftUpLeg  -36.551 23.9281 -12.4114
LeftLeg  21.4291 5.19593 2.62925
LeftFoot  12.8106 -3.03206 13.7334
LeftToes  1.06243e-005 4.65856e-005 -8.18505e-006
63
root  -30.9064 36.8075 -18.6858 -174.196 -70.3194 171.984
RightUpLeg  -3.90452 -12.9099 -12.3324
RightLeg  65.4746 -1.24173 -3.58764
RightFoot  6.71672 -1.35847 8.64727
RightToes  0.00048216 0.542163 -0.142577
Spine  31.1894 1.40365 0.744812
Spine1  8.67409 2.92884 -4.92569
HEad  0.105424 -3.1484 -3.03981
LeftShoulder1  8.22092 -14.7611 -38.8221
LeftArm  -11.3084 5.23124 -21.3139
LeftForeArm  21.4759 -10.4323 -5.39767
LeftHand  -0.25398 0.0180481 5.50724
RightShoulder  5.14103 10.6908 30.2556
RightArm  -2.4061 19.7062 32.6251
RightForeArm  0.117387 21.8247 5.06842
RightHand  -0.559458 0.173986 -11.6899
LeftUpLeg  -37.1851 24.0051 -13.8832
LeftLeg  23.904 5.14413 2.82146
LeftFoot  9.55841 -2.62954 13.8562
LeftToes  1.06243e-005 4.65856e-005 -8.18505e-006
64
root  -31.5751 37.0934 -18.9457 -171.557 -69.966 170.741
RightUpLeg  -13.8767 -11.6316 -11.567
RightLeg  71.5008 -0.991253 -4.22884
RightFoot  7.31889 -0.912486 5.80528
RightToes  0.00048216 0.542163 -0.142577
Spine  35.4151 1.39045 0.742603
Spine1  8.99 3.31766 -5.8294
HEad  -3.88055 -4.19848 -3.74369
LeftShoulder1  8.3352 -15.5401 -37.6232
LeftArm  -11.9793 -0.964532 -23.5363
LeftForeArm  18.6411 -11.388 -5.46544
LeftHand  -0.25398 0.0180481 5.50724
RightShoulder  5.08351 11.1146 28.7851
RightArm  -6.41257 24.6261 32.8609
RightForeArm  3.7973 15.9092 5.98494
RightHand  -0.430693 -0.395159 -9.9995
LeftUpLeg  -37.6506 25.6535 -15.0477
LeftLeg  23.7262 3.63325 2.09121
LeftFoot  8.47777 -2.3793 13.2634
LeftToes  1.06243e-005 4.65856e-005 -8.18505e-006
65
root  -32.2357 37.571 -19.2248 -171.689 -70.0156 172.807
RightUpLeg  -22.6676 -11.2983 -9.71446
RightLeg  71.9123 -1.15979 -4.93723
RightFoot  3.97379 -0.744335 5.7847
RightToes  0.00048216 0.542163 -0.142577
Spine  39.0305 1.0209 1.79462
Spine1  9.51784 3.4154 -5.8646
HEad  -8.24035 -5.02694 -3.90353
LeftShoulder1  8.28346 -16.0356 -36.2864
LeftArm  -12.9753 -8.37243 -25.779
LeftForeArm  17.4822 -10.9547 -5.56293
LeftHand  -0.25398 0.0180481 5.50724
RightShoulder  5.00693 11.8542 26.5432
RightArm  -12.5128 30.0088 32.7596
RightForeArm  7.74199 10.1765 6.62957
RightHand  -0.416629 -0.418975 -9.68884
LeftUpLeg  -37.8629 27.0145 -15.1044
LeftLeg  22.1525 1.89288 1.18161
LeftFoot  8.88125 -2.31591 12.6262
LeftToes  1.06243e-005 4.65856e-005 -8.18505e-006
66
root  -32.8436 38.0139 -19.4963 -173.69 -70.9303 176.732
RightUpLeg  -29.5786 -11.985 -7.23288
RightLeg  67.6205 -2.36141 -6.924
RightFoot  1.25293 -0.757052 6.89974
RightToes  0.00048216 0.542163 -0.142577
Spine  42.5332 -0.0618916 3.64073
Spine1  10.2441 3.10447 -5.86504
HEad  -12.3289 -5.49583 -3.87782
LeftShoulder1  8.2285 -16.5534 -34.9458
LeftArm  -14.2853 -16.2004 -27.289
LeftForeArm  17.5347 -9.59968 -5.59327
LeftHand  -0.25398 0.0180481 5.50724
RightShoulder  4.86305 12.6936 23.8361
RightArm  -16.0599 35.3352 32.4819
RightForeArm  7.51399 5.82164 6.06384
RightHand  -0.462412 -0.152605 -10.247
LeftUpLeg  -37.8248 27.0321 -14.178
LeftLeg  20.6786 0.932135 0.719602
LeftFoot  8.86496 -2.22426 12.1283
LeftToes  1.06243e-005 4.65856e-005 -8.18505e-006
67
root  -33.4241 38.3512 -19.8153 -175.699 -72.2835 -179.473
RightUpLeg  -34.5362 -12.8349 -4.76993
RightLeg  59.3801 -4.89652 -9.30185
RightFoot  0.480215 -0.629826 6.11572
RightToes  0.00048216 0.542163 -0.142577
Spine  46.1358 -1.45429 5.33764
Spine1  10.6516 2.67741 -6.19319
HEad  -15.7144 -5.88465 -3.88787
LeftShoulder1  8.20569 -17.4657 -33.0683
LeftArm  -15.4755 -23.4025 -28.1254
LeftForeArm  17.9439 -7.97064 -5.48917
LeftHand  -0.25398 0.0180481 5.50724
RightShoulder  4.71949 13.3313 21.7213
RightArm  -18.5198 40.3212 31.1588
RightForeArm  5.80243 2.99092 5.49738
RightHand  -0.508141 0.128028 -10.7235
LeftUpLeg  -37.8487 26.4348 -13.1872
LeftLeg  19.6774 0.144165 0.389061
LeftFoot  8.51529 -2.14008 11.883
LeftToes  1.06243e-005 4.65856e-005 -8.18505e-006
68
root  -34.0291 38.5777 -20.2627 -174.957 -73.7237 -178.062
RightUpLeg  -38.1127 -13.2153 -3.31205
RightLeg  47.5491 -6.7932 -8.33542
RightFoot  0.6858 -0.568039 5.42933
RightToes  0.00048216 0.542163 -0.142577
Spine  49.1825 -2.32221 5.89454
Spine1  10.8732 2.30385 -6.10699
HEad  -18.9701 -6.55074 -3.8001
LeftShoulder1  8.20021 -18.7135 -30.8166
LeftArm  -16.3637 -30.0877 -28.3793
LeftForeArm  18.2654 -6.07984 -5.34109
LeftHand  -0.25398 0.0180481 5.50724
RightShoulder  4.553 13.6058 20.2009
RightArm  -21.0355 44.9251 28.502
RightForeArm  4.20145 1.33099 5.22423
RightHand  -0.569326 0.612311 -11.0914
LeftUpLeg  -38.8749 25.9068 -13.2277
LeftLeg  19.3357 -1.12085 -0.108376
LeftFoot  8.45789 -2.09447 11.6619
LeftToes  1.06243e-005 4.65856e-005 -8.18505e-006
